<?xml version="1.0" standalone="no"?>
<!DOCTYPE svg PUBLIC "-//W3C//DTD SVG 20010904//EN"
 "http://www.w3.org/TR/2001/REC-SVG-20010904/DTD/svg10.dtd">
<svg version="1.0" xmlns="http://www.w3.org/2000/svg"
 width="1000.000000pt" height="1000.000000pt" viewBox="0 0 1000.000000 1000.000000"
 preserveAspectRatio="xMidYMid meet">
<metadata>
Created by potrace 1.14, written by Peter Selinger 2001-2017
</metadata>
<g transform="translate(0.000000,1000.000000) scale(0.100000,-0.100000)"
fill="#000000" stroke="none">
<path d="M2541 7498 c-58 -13 -119 -75 -150 -153 -35 -89 -41 -239 -12 -334
25 -82 71 -147 126 -178 40 -23 42 -23 513 -23 l472 0 -3 -1687 c-3 -1681 -3
-1688 -24 -1773 -60 -242 -162 -399 -330 -509 -159 -105 -337 -146 -588 -138
-205 7 -326 36 -452 108 -201 115 -357 402 -378 695 -15 205 -114 283 -370
292 -208 7 -329 -39 -385 -149 -64 -124 -46 -473 36 -701 139 -386 462 -690
890 -838 224 -77 444 -110 738 -110 363 0 641 60 910 198 199 101 363 248 490
440 138 207 212 429 246 737 6 57 10 800 10 2013 0 1889 0 1923 -20 1961 -35
70 -132 129 -244 150 -76 14 -1411 13 -1475 -1z"/>
<path d="M5511 7495 c-103 -19 -195 -66 -229 -118 l-27 -41 -3 -2546 -2 -2547
23 -43 c29 -56 98 -104 191 -133 106 -33 275 -31 367 5 94 37 146 74 177 127
l27 46 3 1158 2 1157 930 0 930 0 0 -1141 c0 -827 3 -1152 11 -1180 44 -145
285 -232 510 -185 120 26 212 84 250 158 19 36 19 97 19 2568 0 2468 0 2532
-19 2568 -33 65 -90 103 -206 138 -95 29 -266 24 -373 -10 -98 -32 -163 -86
-181 -151 -8 -28 -11 -356 -11 -1082 l0 -1043 -930 0 -930 0 -2 1058 -3 1057
-24 43 c-41 70 -136 119 -273 142 -80 13 -135 12 -227 -5z"/>
</g>
</svg>
